<svg width="2340" height="564" version="1.1" xmlns="http://www.w3.org/2000/svg" desc="Created with imagetracer.js version 1.2.6" ><path fill="rgb(0,0,0)" stroke="rgb(0,0,0)" stroke-width="1" opacity="0" d="M 0 0 L 2339.5 0 L 2340 0.5 L 2340 564 L 0.5 564 L 0 563.5 L 0 0 Z M 1231 61 L 1219 64 L 1204 71 L 1130 113 Q 1120 121 1117 136 L 1117 143 L 1119 152 L 1127 168 Q 1133 179 1149 181 L 1157 181 L 1168 179 L 1184 174 L 1250 148 L 1268 137 Q 1280 129 1283 113 L 1283 103 L 1281 93 L 1273 78 Q 1266 68 1255 63 L 1249 61 L 1231 61 Z M 736 92 L 723 95 L 711 102 L 701 116 L 697 135 L 698 151 L 704 166 Q 710 175 724 178 L 743 178 L 751 176 L 753 187 L 753 396 Q 751 397 752 403 L 750 407 L 737 403 L 725 404 L 731 382 L 732 371 L 733 370 L 733 362 L 734 361 L 734 347 L 735 346 L 734 313 L 727 278 Q 716 245 695 223 Q 679 206 658 195 L 634 186 L 622 183 L 611 182 L 610 181 L 601 181 L 600 180 L 564 180 L 563 181 L 555 181 L 534 185 Q 499 194 477 215 L 462 232 L 460 207 L 456 188 Q 448 162 433 144 Q 413 119 383 106 L 354 97 L 343 96 L 342 95 L 333 95 L 332 94 L 301 94 L 300 95 L 285 95 L 284 96 L 270 96 L 269 97 L 255 97 L 254 98 L 232 98 L 231 99 L 200 99 L 199 98 L 186 98 L 185 97 L 165 96 L 164 95 L 153 95 L 152 94 L 139 94 L 138 93 L 114 93 L 109 94 L 93 102 Q 78 113 74 135 L 74 152 L 76 161 L 86 178 Q 93 186 107 189 L 121 189 L 138 185 L 143 186 L 146 194 L 146 385 L 144 394 L 141 399 L 120 395 Q 109 394 103 396 L 96 399 L 87 405 L 78 419 L 74 433 Q 72 459 83 473 Q 94 487 116 491 L 131 491 L 142 489 L 151 489 L 152 488 L 161 488 L 162 487 L 171 487 L 172 486 L 190 486 L 191 485 L 232 486 L 233 487 L 256 488 L 257 489 L 269 489 L 270 490 L 284 490 L 285 491 L 306 491 Q 307 489 312 490 Q 322 488 330 482 Q 340 475 345 463 L 348 453 L 348 443 L 349 442 L 346 422 L 338 408 Q 330 398 316 395 L 300 395 L 278 399 Q 270 401 267 398 L 263 393 L 263 368 L 266 363 L 289 363 L 290 364 L 333 363 L 361 358 L 391 347 L 417 330 L 431 317 L 430 320 L 430 359 L 431 360 L 431 369 L 432 370 L 433 382 L 436 395 Q 445 427 464 450 Q 483 472 513 485 L 542 494 L 561 496 L 562 497 L 575 497 L 576 498 L 592 498 L 593 497 L 614 496 L 646 488 Q 677 476 698 452 Q 700 468 709 478 Q 717 487 732 490 L 752 490 L 769 487 L 777 487 L 778 486 L 824 486 L 825 487 L 838 487 L 846 489 L 854 489 L 855 490 L 877 490 L 882 489 L 896 481 Q 902 475 905 467 L 908 455 L 908 432 Q 907 422 902 417 Q 896 408 885 406 L 870 406 L 858 409 L 857 406 L 857 390 L 884 366 L 909 401 L 920 419 L 920 424 Q 913 433 910 446 Q 909 456 911 463 Q 914 472 920 479 Q 927 487 940 490 L 959 490 L 974 487 L 983 487 L 984 486 L 1009 486 L 1010 487 L 1027 488 L 1028 489 L 1037 489 L 1038 490 L 1062 490 L 1067 489 L 1082 481 Q 1091 472 1094 456 Q 1111 474 1136 485 L 1160 493 L 1176 496 L 1197 497 L 1198 498 L 1228 497 L 1259 491 Q 1291 481 1314 461 L 1329 442 L 1336 423 Q 1346 446 1362 463 Q 1377 479 1400 489 L 1418 495 L 1429 497 L 1439 497 L 1440 498 L 1463 497 L 1485 492 Q 1509 483 1525 466 Q 1526 476 1531 482 L 1540 487 L 1548 489 L 1571 487 L 1572 486 L 1605 486 L 1624 490 L 1641 490 L 1657 482 Q 1664 476 1668 466 L 1673 446 L 1675 450 Q 1696 473 1727 486 L 1753 494 L 1771 496 L 1772 497 L 1785 497 L 1786 498 L 1816 497 L 1844 492 Q 1874 484 1895 467 L 1901 478 Q 1909 487 1925 490 L 1951 490 L 1952 489 L 1963 489 L 1964 488 L 1976 488 L 1977 487 L 1991 487 L 1992 486 L 2025 488 L 2026 489 L 2052 489 Q 2064 487 2072 481 L 2080 472 L 2085 461 Q 2087 470 2093 477 L 2104 485 L 2120 490 L 2144 489 L 2161 486 L 2171 486 L 2172 485 L 2195 486 L 2212 489 L 2221 489 L 2222 490 L 2242 489 Q 2252 487 2259 482 L 2268 472 L 2272 463 L 2274 453 Q 2276 427 2264 415 L 2253 406 L 2240 403 L 2223 406 L 2221 405 L 2212 397 L 2168 333 L 2209 276 L 2215 271 L 2224 271 L 2225 272 Q 2243 275 2251 267 Q 2263 257 2267 239 Q 2269 226 2266 218 L 2262 208 L 2256 199 L 2250 194 L 2235 188 L 2213 188 L 2212 189 L 2194 190 L 2193 191 L 2184 191 L 2183 192 L 2167 192 L 2166 191 L 2142 189 L 2141 188 L 2117 188 Q 2106 190 2099 196 L 2092 204 L 2087 217 Q 2085 208 2081 203 Q 2073 191 2057 188 L 2031 188 L 2021 190 L 2013 190 L 2012 191 L 2003 191 L 2002 192 L 1981 192 L 1980 191 L 1964 190 L 1963 189 L 1955 189 L 1954 188 L 1931 188 Q 1920 190 1914 196 L 1903 209 L 1898 222 Q 1880 202 1854 191 L 1828 183 L 1809 181 L 1808 180 L 1774 180 L 1773 181 L 1765 181 L 1749 184 Q 1731 189 1717 196 L 1693 212 Q 1667 233 1652 266 L 1642 297 L 1639 314 L 1639 324 L 1638 325 L 1638 357 L 1639 358 L 1639 367 L 1645 396 L 1649 406 L 1648 405 Q 1631 403 1622 407 L 1620 401 L 1620 127 L 1619 126 L 1618 114 L 1613 103 Q 1607 95 1596 93 L 1569 93 L 1568 94 L 1555 94 L 1554 95 L 1536 95 L 1535 94 L 1513 93 L 1512 92 L 1489 92 Q 1487 95 1482 93 Q 1471 95 1465 100 Q 1456 107 1451 118 L 1448 135 Q 1448 153 1456 164 Q 1463 173 1476 177 L 1493 177 L 1498 175 L 1513 174 L 1516 182 L 1516 207 L 1493 193 L 1476 187 L 1460 184 L 1432 184 L 1411 188 Q 1387 195 1371 209 Q 1346 229 1333 261 Q 1325 240 1312 226 Q 1295 205 1270 193 L 1248 185 L 1219 180 L 1185 180 L 1153 186 Q 1122 195 1102 214 L 1081 237 L 1080 220 L 1078 212 L 1070 198 L 1057 190 L 1049 188 L 1028 188 L 1027 189 L 1017 189 L 1016 190 L 1006 190 L 1005 191 L 992 191 L 991 192 L 960 192 L 959 191 L 929 189 L 928 188 L 901 188 Q 891 190 885 194 L 876 204 L 872 217 L 873 234 L 877 243 L 893 259 L 889 266 L 858 293 L 857 118 L 855 109 L 852 103 Q 847 94 835 92 L 823 92 L 822 93 L 806 94 L 805 95 L 797 95 L 796 96 L 778 96 L 761 93 L 754 93 L 753 92 L 736 92 Z " /><path fill="rgb(0,0,0)" stroke="rgb(0,0,0)" stroke-width="1" opacity="0" d="M 735.5 110 L 752.5 110 L 753.5 111 L 777.5 113 L 778.5 114 L 794.5 114 L 795.5 113 L 804.5 113 L 805.5 112 L 821.5 111 L 822.5 110 L 833.5 110 L 837 112.5 L 839 117.5 L 839 332 Q 874.4 305 906 273.5 L 911 263.5 L 911 254.5 Q 907.8 245.2 900.5 240 L 893 233.5 Q 888.6 228.3 890 217.5 Q 891.5 211 896.5 208 L 901.5 206 L 912.5 205 L 913.5 206 L 927.5 206 L 928.5 207 L 960.5 209 L 961.5 210 L 988.5 210 L 989.5 209 L 1003.5 209 L 1004.5 208 L 1015.5 208 L 1016.5 207 L 1026.5 207 L 1027.5 206 Q 1035.7 207.7 1039.5 205 L 1050.5 207 L 1059 213.5 L 1062 220.5 L 1063 233.5 L 1061 244.5 L 1056.5 251 Q 1051.7 255.2 1041.5 254 L 1030.5 251 L 1015.5 251 L 993.5 263 L 966.5 283 L 955 293.5 Q 950 298.5 950 308.5 L 953 316.5 L 965 333.5 L 1004 396.5 Q 1012.4 410.6 1024.5 421 L 1033.5 426 L 1045.5 426 L 1050.5 424 L 1064.5 423 L 1071 427.5 Q 1078.3 435.7 1076 453.5 L 1072 464.5 L 1067.5 469 L 1060.5 472 L 1037.5 472 L 1036.5 471 L 1009.5 469 L 1008.5 468 L 984.5 468 L 983.5 469 L 973.5 469 L 957.5 472 L 941.5 472 L 932 464.5 Q 926.5 459.5 928 447.5 L 938 426.5 L 938 415.5 Q 933 402 925 391.5 L 894.5 351 Q 891 346.5 882.5 347 Q 873.3 349.3 867.5 355 L 839 381.5 L 839 406.5 L 840 411.5 Q 841.9 420.6 848.5 425 Q 852.5 428 860.5 427 L 876.5 423 Q 877.7 425.2 882.5 424 L 888 428.5 L 890 432.5 L 891 445.5 L 888 460.5 L 881.5 469 L 874.5 472 L 854.5 472 L 845.5 470 L 822.5 469 L 821.5 468 L 778.5 468 L 777.5 469 L 767.5 469 L 751.5 472 L 733.5 472 Q 725.5 469.5 721 463.5 Q 714 455.5 715 439.5 L 718 428.5 L 723.5 423 Q 728.3 420.8 736.5 422 L 746.5 425 L 756.5 425 L 764 419.5 L 769 408.5 L 770 395.5 L 771 394.5 L 771 187.5 L 767 167.5 L 761.5 160 L 758.5 158 L 749.5 157 L 740.5 160 L 731.5 161 L 720 157 Q 713.9 149.4 715 133.5 L 717 124.5 Q 719.3 117.8 724.5 114 L 735.5 110 Z " /><path fill="rgb(0,0,0)" stroke="rgb(0,0,0)" stroke-width="1" opacity="0" d="M 1487.5 110 L 1512.5 110 L 1523.5 112 L 1551.5 113 L 1552.5 112 L 1566.5 112 L 1567.5 111 L 1593.5 111 L 1599 114.5 L 1602 125.5 L 1602 400.5 L 1605 413.5 L 1612.5 423 Q 1616.8 426.7 1626.5 425 Q 1631.9 421.9 1640.5 422 L 1647.5 424 L 1651 427.5 Q 1655.8 434.7 1654 448.5 L 1650 461.5 L 1642.5 470 L 1630.5 473 L 1603.5 468 L 1572.5 468 L 1571.5 469 L 1562.5 469 L 1561.5 470 L 1548.5 471 L 1543 467.5 L 1542 464.5 L 1541.5 407 L 1519 444.5 L 1504.5 460 Q 1492.6 470.6 1475.5 476 L 1452.5 480 L 1438.5 480 L 1416.5 476 L 1401.5 470 Q 1383.7 460.3 1371 445.5 Q 1356.2 428.3 1347 405.5 L 1342 390.5 L 1338 372.5 L 1336 347.5 L 1339 340.5 L 1341 330.5 L 1341 297.5 L 1340 295.5 Q 1350 251.5 1378.5 226 Q 1393.6 211.6 1416.5 205 L 1431.5 202 L 1458.5 202 L 1469.5 204 L 1490.5 212 L 1506.5 222 L 1528.5 242 L 1534 245 L 1534 181.5 L 1531 168.5 L 1524.5 160 L 1514.5 156 L 1504.5 156 L 1482.5 160 Q 1474.7 158.8 1471 153.5 Q 1465.1 146.4 1466 132.5 L 1469 121.5 L 1474.5 115 L 1487.5 110 Z M 1466 254 L 1465 255 L 1456 255 L 1447 258 L 1437 264 Q 1424 275 1417 291 L 1411 310 L 1409 328 L 1408 329 L 1408 358 L 1409 359 L 1409 367 L 1411 377 Q 1415 393 1424 406 Q 1434 422 1457 426 L 1476 426 L 1481 425 L 1501 415 Q 1514 404 1522 387 L 1528 368 L 1529 356 L 1530 355 L 1530 325 L 1529 324 L 1528 312 Q 1523 291 1512 277 Q 1503 264 1488 258 L 1477 255 Q 1469 257 1466 254 Z " /><path fill="rgb(0,0,0)" stroke="rgb(0,0,0)" stroke-width="1" opacity="0" d="M 115.5 111 L 139.5 111 L 140.5 112 L 152.5 112 L 153.5 113 L 163.5 113 L 164.5 114 L 184.5 115 L 185.5 116 L 224.5 117 L 225.5 116 L 251.5 116 L 252.5 115 L 297.5 113 L 298.5 112 L 332.5 112 L 359.5 117 L 378.5 124 Q 399.9 134.1 415 150.5 Q 431.4 167.6 439 193.5 L 443 215.5 L 443 240.5 L 442 241.5 L 440 259.5 L 434 277.5 Q 425 298 409.5 312 Q 387.8 332.3 354.5 341 L 332.5 345 L 323.5 345 L 322.5 346 L 285.5 346 L 284.5 345 L 263.5 345 Q 255.7 346.7 251 351.5 L 247 358.5 L 245 366.5 L 245 392.5 Q 247.2 393.8 246 398.5 L 250 407.5 L 255.5 413 L 267.5 417 L 276.5 417 L 299.5 413 L 313.5 413 Q 321.1 414.8 325 420.5 L 329 427.5 L 331 437.5 L 331 444.5 Q 328.8 445.8 330 450.5 L 326 459.5 L 319.5 467 L 305.5 473 L 282.5 473 L 281.5 472 L 268.5 472 L 267.5 471 L 231.5 469 L 230.5 468 L 198.5 467 L 197.5 468 L 172.5 468 L 171.5 469 L 161.5 469 L 160.5 470 L 151.5 470 L 150.5 471 L 131.5 472 L 130.5 473 L 116.5 473 Q 105.2 470.8 99 463.5 Q 93.7 457.8 92 448.5 L 92 433.5 Q 94.8 422.3 102.5 416 Q 107.7 411.2 119.5 413 Q 129.5 417 143.5 417 Q 151.1 415.6 155 410.5 L 161 399.5 L 164 384.5 L 164 193.5 L 161 181.5 L 154.5 172 L 147.5 168 L 137.5 167 L 119.5 171 L 108.5 171 Q 101.8 168.8 98 163.5 Q 89.6 154.9 92 135.5 L 95 126.5 L 100 119 L 105.5 115 L 115.5 111 Z M 274 168 L 264 170 L 258 173 Q 251 177 248 185 L 245 200 L 245 268 Q 248 269 246 276 L 250 285 L 260 290 L 273 291 L 274 292 L 303 292 Q 304 290 310 291 L 324 287 L 340 277 Q 347 269 352 259 L 356 244 L 356 219 Q 354 217 355 213 Q 351 197 342 187 Q 332 176 316 171 L 300 168 L 274 168 Z " /><path fill="rgb(0,0,0)" stroke="rgb(0,0,0)" stroke-width="1" opacity="0" d="M 274.5 186 L 299.5 186 L 309.5 188 Q 322.6 191.4 330 200.5 L 337 214.5 L 339 232.5 L 338 233.5 L 338 242.5 L 335 252.5 Q 331.8 260.3 325.5 265 Q 318.7 270.7 308.5 273 Q 303.8 271.8 302.5 274 L 271.5 274 Q 270.3 271.8 265.5 273 L 264 271.5 L 263 267.5 L 263 198.5 L 265 190.5 L 267.5 188 L 274.5 186 Z " /><path fill="rgb(0,0,0)" stroke="rgb(0,0,0)" stroke-width="1" opacity="0" d="M 563.5 198 L 600.5 198 L 601.5 199 L 619.5 201 L 639.5 207 Q 667.9 218.1 686 239.5 Q 704 260 712 290.5 L 716 312.5 L 717 348.5 L 716 349.5 L 716 360.5 L 715 361.5 L 713 379.5 L 704 408.5 Q 692 435.5 670.5 453 Q 654 467 630.5 474 L 605.5 479 L 573.5 480 L 572.5 479 L 561.5 479 L 560.5 478 L 553.5 478 L 543.5 476 L 518.5 468 Q 492.6 456.4 476 435.5 Q 465.8 422.7 459 406.5 L 452 384.5 L 449 367.5 L 449 359.5 L 448 358.5 L 448 318.5 L 449 317.5 L 449 309.5 L 452 293.5 L 461 266.5 Q 472.2 242.2 491.5 226 Q 506.4 213.4 526.5 206 L 539.5 202 L 555.5 199 L 562.5 199 L 563.5 198 Z M 574 249 L 562 252 L 546 262 Q 534 272 528 288 L 522 308 L 521 321 L 520 322 L 520 357 L 521 358 L 522 371 L 528 391 L 538 408 Q 546 418 559 424 L 572 428 L 581 428 L 582 429 L 600 427 L 617 419 Q 629 410 635 396 L 640 382 L 643 366 L 643 358 L 644 357 L 644 322 L 643 321 L 642 306 L 636 285 L 625 267 Q 610 247 574 249 Z " /><path fill="rgb(0,0,0)" stroke="rgb(0,0,0)" stroke-width="1" opacity="0" d="M 1184.5 198 L 1218.5 198 L 1219.5 199 L 1237.5 201 L 1256.5 207 Q 1283.1 218.4 1300 239.5 Q 1309.9 251.6 1316 267.5 L 1320 280.5 L 1322 290.5 L 1322 297.5 L 1319 312.5 L 1318 341.5 L 1316.5 343 L 1309.5 345 L 1156.5 345 Q 1148.7 346.2 1145 351.5 Q 1140 359.5 1142 374.5 L 1144 384.5 L 1149 397.5 Q 1155.9 409.6 1166.5 418 L 1183.5 427 L 1199.5 430 L 1208.5 430 L 1219.5 428 L 1235.5 421 L 1251.5 409 Q 1260 397.5 1272.5 390 L 1283.5 386 L 1296.5 386 Q 1309.1 388.4 1315 397.5 Q 1320.3 404.7 1318 419.5 Q 1312.5 440 1297.5 451 Q 1278.9 466.4 1252.5 474 L 1227.5 479 L 1194.5 480 L 1193.5 479 L 1175.5 478 L 1161.5 475 L 1141.5 468 Q 1116.8 456.7 1100 437.5 L 1084 414.5 L 1074 391.5 L 1068 363.5 L 1067 328.5 L 1068 327.5 L 1068 317.5 L 1069 316.5 L 1071 299.5 L 1080 272.5 Q 1093 244.5 1115.5 226 Q 1127.5 216 1142.5 209 L 1158.5 203 L 1184.5 198 Z M 1191 240 Q 1174 243 1164 252 Q 1150 262 1145 281 Q 1143 291 1147 297 Q 1150 302 1158 303 L 1239 303 L 1245 301 L 1251 293 L 1251 278 Q 1249 268 1244 262 Q 1235 249 1220 243 L 1208 240 L 1191 240 Z " /><path fill="rgb(0,0,0)" stroke="rgb(0,0,0)" stroke-width="1" opacity="0" d="M 1773.5 198 L 1807.5 198 L 1808.5 199 L 1821.5 200 L 1842.5 206 Q 1869.8 216.7 1887 237.5 Q 1900.2 252.8 1907 274.5 L 1912 301.5 L 1912 326.5 L 1909 339.5 L 1906.5 342 L 1898.5 345 L 1745.5 345 L 1738.5 347 L 1733 352.5 L 1731 357.5 L 1731 376.5 Q 1735.3 400.7 1750.5 414 Q 1765.5 430 1796.5 430 L 1807.5 428 L 1820.5 423 L 1845 405 L 1851.5 397 Q 1858.4 390.4 1868.5 387 Q 1875.2 384.7 1885.5 386 Q 1896 388.5 1902 395.5 Q 1907 400.5 1907 410.5 Q 1899.4 416.4 1895 425.5 L 1892 435.5 L 1892 444.5 L 1889.5 448 Q 1871.2 464.7 1844.5 473 L 1815.5 479 L 1783.5 480 L 1782.5 479 L 1771.5 479 L 1754.5 476 L 1732.5 469 Q 1704.3 456.7 1686 434.5 Q 1670.2 415.8 1662 389.5 L 1658 372.5 L 1657 357.5 L 1656 356.5 L 1656 323.5 L 1662 290.5 L 1670 269.5 Q 1681.4 246.4 1699.5 230 Q 1713.8 216.3 1733.5 208 L 1747.5 203 L 1773.5 198 Z M 1780 240 L 1768 243 L 1754 251 L 1739 268 L 1735 276 L 1733 286 L 1734 293 L 1736 297 Q 1739 302 1747 303 L 1828 303 L 1835 300 L 1840 291 L 1839 275 L 1831 260 Q 1821 248 1806 242 L 1797 240 L 1780 240 Z " /><path fill="rgb(0,0,0)" stroke="rgb(0,0,0)" stroke-width="1" opacity="0" d="M 1938.5 205 Q 1944 207.5 1953.5 206 L 1970.5 209 L 1980.5 209 L 1981.5 210 L 2000.5 210 L 2001.5 209 L 2011.5 209 L 2012.5 208 L 2046.5 205 L 2047.5 206 L 2058.5 207 L 2066 212.5 L 2069 219.5 L 2070 228.5 L 2066 237.5 L 2055 249.5 L 2054 261.5 L 2061 277.5 L 2087 319 L 2091 316.5 L 2120 275.5 L 2124 264.5 L 2124 257.5 Q 2121.9 249.6 2115.5 246 L 2106 239.5 L 2104 235.5 L 2104 222.5 L 2106 215.5 L 2111.5 209 L 2118.5 206 L 2127.5 205 L 2128.5 206 L 2140.5 206 L 2141.5 207 L 2166.5 209 L 2167.5 210 L 2182.5 210 L 2183.5 209 L 2192.5 209 L 2193.5 208 L 2202.5 208 L 2203.5 207 L 2223.5 206 L 2225.5 205 L 2235.5 207 L 2245 214.5 Q 2251.2 221.8 2249 237.5 Q 2245.9 247.4 2238.5 253 L 2236.5 254 L 2225.5 254 L 2224.5 253 L 2210.5 253 Q 2199.2 257.2 2193 266.5 L 2146 330.5 L 2146 332.5 L 2194 402.5 L 2208.5 419 Q 2214.8 425.2 2229.5 423 L 2235.5 421 L 2240.5 421 Q 2248.1 422.8 2252 428.5 Q 2258 436.5 2256 452.5 Q 2254.4 463.4 2246.5 468 L 2234.5 472 L 2221.5 472 L 2220.5 471 L 2212.5 471 L 2211.5 470 L 2195.5 469 L 2194.5 468 L 2174.5 467 L 2173.5 468 L 2160.5 468 L 2159.5 469 L 2151.5 469 L 2150.5 470 L 2134.5 471 L 2133.5 472 L 2120.5 472 Q 2110.1 469.9 2105 462.5 Q 2100.2 456.8 2100 446.5 Q 2101.8 439.3 2107.5 436 L 2118 427.5 L 2122 419.5 L 2122 414.5 Q 2119.4 402.6 2113 394.5 L 2085.5 356 L 2051 403.5 L 2046 414.5 L 2046 422.5 Q 2048.3 429.3 2053.5 433 L 2066 441.5 L 2067 443.5 L 2067 455.5 Q 2064.8 463.9 2058.5 468 L 2050.5 471 L 2024.5 471 L 2023.5 470 L 2012.5 470 L 2011.5 469 L 1977.5 469 L 1976.5 470 L 1964.5 470 L 1963.5 471 L 1951.5 471 L 1950.5 472 L 1925.5 472 Q 1917.1 469.9 1913 463.5 Q 1909.8 459.2 1910 451.5 L 1917 442.5 L 1924.5 423 L 1929.5 422 L 1930.5 423 L 1949.5 425 L 1957.5 423 L 1962.5 420 L 1976 406.5 L 2017 350.5 L 2027 334.5 L 1979 271.5 L 1966.5 259 Q 1959.9 253.1 1947.5 253 L 1930.5 256 Q 1921.6 254.4 1918 247.5 L 1915 239.5 L 1915 228.5 Q 1917.3 215.3 1926.5 209 L 1932.5 206 Q 1937.3 207.2 1938.5 205 Z " /><path fill="rgb(0,0,0)" stroke="rgb(0,0,0)" stroke-width="1" opacity="0" d="M 2086.5 237 Q 2088 249 2095.5 255 L 2106 261 L 2103 268.5 L 2089.5 287 Q 2087.3 287.8 2088 285.5 L 2076 267.5 L 2072 256.5 Q 2081.9 249.4 2086.5 237 Z " /><path fill="rgb(0,0,0)" stroke="rgb(0,0,0)" stroke-width="1" opacity="0" d="M 1191.5 258 Q 1205.2 256.3 1213.5 260 L 1228 270.5 L 1232 276.5 L 1234 284.5 L 1163 285 L 1166 276.5 L 1177.5 264 L 1191.5 258 Z " /><path fill="rgb(0,0,0)" stroke="rgb(0,0,0)" stroke-width="1" opacity="0" d="M 1780.5 258 Q 1793.9 256.1 1801.5 260 Q 1812.8 264.2 1819 273.5 Q 1822.7 277.8 1822 285 L 1752.5 285 L 1752 281.5 L 1762.5 267 Q 1769.5 260.5 1780.5 258 Z " /><path fill="rgb(0,0,0)" stroke="rgb(0,0,0)" stroke-width="1" opacity="0" d="M 574.5 267 Q 602.7 264.8 613 280.5 Q 621 291 624 306.5 L 625 319.5 L 626 320.5 L 626 357.5 L 625 358.5 L 625 365.5 L 623 375.5 L 618 389.5 L 607.5 403 Q 598 411.5 579.5 411 L 569.5 409 Q 560.8 405.8 555 399.5 Q 545.3 388.7 541 372.5 L 538 356.5 L 538 340.5 L 537 337.5 L 538 336.5 L 539 314.5 L 543 298.5 Q 548.3 283.3 559.5 274 Q 565.4 268.9 574.5 267 Z " /><path fill="rgb(0,0,0)" stroke="rgb(0,0,0)" stroke-width="1" opacity="0" d="M 1022.5 268 L 1034.5 271 L 1050.5 272 L 1062 269 L 1055 289.5 L 1051 309.5 L 1050 329.5 L 1049 330.5 L 1049 350.5 L 1050 351.5 L 1050 363.5 L 1051 364.5 L 1053 382.5 L 1060 404.5 L 1043.5 408 L 1037.5 408 L 1024 393.5 L 975 315.5 L 968 306.5 L 975.5 299 L 1006.5 276 L 1022.5 268 Z " /><path fill="rgb(0,0,0)" stroke="rgb(0,0,0)" stroke-width="1" opacity="0" d="M 1947.5 271 L 1953.5 272 L 1963 280.5 L 2005 335.5 L 1972 382.5 L 1953.5 404 Q 1951.6 407.6 1945.5 407 L 1937.5 405 L 1925.5 405 L 1924 403.5 L 1924 399.5 L 1920 389.5 L 1907.5 376 L 1891.5 369 L 1871.5 368 L 1859.5 371 L 1849.5 376 L 1815.5 405 L 1801.5 411 L 1787.5 412 L 1771.5 407 L 1758 395.5 L 1750 379.5 L 1748 364.5 L 1749.5 363 L 1897.5 363 L 1911.5 360 L 1922 352.5 L 1926 345.5 L 1929 334.5 Q 1927.2 328.2 1930 326.5 L 1930 302.5 L 1929 301.5 L 1928 285.5 L 1925 273 Q 1938.6 274.8 1947.5 271 Z " /><path fill="rgb(0,0,0)" stroke="rgb(0,0,0)" stroke-width="1" opacity="0" d="M 1463.5 272 Q 1486.1 272.4 1496 285.5 Q 1505.8 296.7 1510 313.5 L 1512 324.5 L 1512 354.5 L 1509 369.5 L 1505 380.5 Q 1499.8 391.3 1491.5 399 L 1477.5 407 Q 1470 409.5 1458.5 408 Q 1446.5 405 1440 396.5 Q 1431.5 386 1428 370.5 L 1427 358.5 L 1426 357.5 L 1426 328.5 L 1427 327.5 L 1428 315.5 L 1432 301.5 Q 1437.6 286.1 1449.5 277 L 1463.5 272 Z " /><path fill="rgb(0,0,0)" stroke="rgb(0,0,0)" stroke-width="1" opacity="0" d="M 1317.5 361 Q 1320.9 360.1 1319 365.5 L 1320 366.5 L 1321 377.5 L 1318.5 376 Q 1306.1 366.4 1282.5 368 L 1273.5 370 L 1262.5 375 Q 1247.3 384.3 1236.5 398 L 1221.5 408 L 1208.5 412 L 1199.5 412 L 1189.5 410 L 1179.5 405 L 1171 397.5 Q 1164.2 389.8 1161 378.5 L 1160 363 L 1309.5 363 L 1317.5 361 Z " /><path fill="rgb(0,0,0)" stroke="rgb(0,0,0)" stroke-width="1" opacity="0" d="M 2085.5 387 L 2101 409.5 L 2103 416.5 L 2090 427.5 L 2085 437 Q 2082 438.3 2083 434.5 L 2074.5 424 L 2064 417.5 L 2085.5 387 Z " /><path fill="rgb(255,255,255)" stroke="rgb(255,255,255)" stroke-width="1" opacity="0.9333333333333333" d="M 1230.5 61 L 1248.5 61 L 1254.5 63 Q 1266.1 67.9 1273 77.5 L 1281 92.5 L 1283 102.5 L 1283 112.5 Q 1279.8 129.3 1267.5 137 L 1249.5 148 L 1183.5 174 L 1167.5 179 L 1156.5 181 L 1148.5 181 Q 1133.4 178.6 1127 167.5 L 1119 151.5 L 1117 142.5 L 1117 135.5 Q 1119.7 120.7 1129.5 113 L 1203.5 71 L 1218.5 64 L 1230.5 61 Z " /><path fill="rgb(255,255,255)" stroke="rgb(255,255,255)" stroke-width="1" opacity="0.9333333333333333" d="M 735.5 92 L 752.5 92 L 753.5 93 L 760.5 93 L 777.5 96 L 795.5 96 L 796.5 95 L 804.5 95 L 805.5 94 L 821.5 93 L 822.5 92 L 834.5 92 Q 846.5 94 852 102.5 L 855 108.5 L 857 117.5 L 857.5 293 L 889 265.5 L 893 258.5 L 877 242.5 L 873 233.5 L 872 216.5 L 876 203.5 L 884.5 194 Q 891 189.5 900.5 188 L 927.5 188 L 928.5 189 L 958.5 191 L 959.5 192 L 990.5 192 L 991.5 191 L 1004.5 191 L 1005.5 190 L 1015.5 190 L 1016.5 189 L 1026.5 189 L 1027.5 188 L 1048.5 188 L 1056.5 190 L 1070 198 L 1078 211.5 L 1080 219.5 L 1080.5 237 L 1101.5 214 Q 1122.5 195.5 1152.5 186 L 1184.5 180 L 1218.5 180 L 1247.5 185 L 1269.5 193 Q 1294.8 205.2 1312 225.5 Q 1325 240.5 1332.5 261 Q 1345.8 229.3 1370.5 209 Q 1387 195 1410.5 188 L 1431.5 184 L 1459.5 184 L 1475.5 187 L 1492.5 193 L 1515.5 207 L 1516 181.5 L 1512.5 174 L 1497.5 175 L 1492.5 177 L 1475.5 177 Q 1462.7 173.3 1456 163.5 Q 1447.8 153.2 1448 134.5 L 1451 117.5 Q 1455.5 106.5 1464.5 100 Q 1471.4 94.9 1481.5 93 Q 1487 94.5 1488.5 92 L 1511.5 92 L 1512.5 93 L 1534.5 94 L 1535.5 95 L 1553.5 95 L 1554.5 94 L 1567.5 94 L 1568.5 93 L 1595.5 93 Q 1606.8 95.2 1613 102.5 L 1618 113.5 L 1619 125.5 L 1620 126.5 L 1620 400.5 L 1622 407 L 1629.5 405 L 1648 405 L 1642 383.5 L 1639 366.5 L 1639 357.5 L 1638 356.5 L 1638 324.5 L 1639 323.5 L 1639 313.5 L 1642 296.5 L 1652 265.5 Q 1666.9 233.4 1692.5 212 L 1716.5 196 Q 1731 188.5 1748.5 184 L 1764.5 181 L 1772.5 181 L 1773.5 180 L 1807.5 180 L 1808.5 181 L 1827.5 183 L 1853.5 191 Q 1879.7 202.3 1897.5 222 L 1903 208.5 L 1913.5 196 Q 1920.1 190.1 1930.5 188 L 1953.5 188 L 1954.5 189 L 1962.5 189 L 1963.5 190 L 1979.5 191 L 1980.5 192 L 2001.5 192 L 2002.5 191 L 2011.5 191 L 2012.5 190 L 2020.5 190 L 2030.5 188 L 2056.5 188 Q 2073.2 190.8 2081 202.5 Q 2085.4 208.1 2086.5 217 L 2092 203.5 L 2098.5 196 Q 2105.5 190 2116.5 188 L 2140.5 188 L 2141.5 189 L 2165.5 191 L 2166.5 192 L 2182.5 192 L 2183.5 191 L 2192.5 191 L 2193.5 190 L 2211.5 189 L 2212.5 188 L 2234.5 188 L 2249.5 194 L 2256 199 L 2262 207.5 L 2266 217.5 Q 2268.7 225.8 2267 238.5 Q 2263.1 257.1 2250.5 267 Q 2242.7 274.7 2224.5 272 L 2223.5 271 L 2214.5 271 L 2209 275.5 L 2168 332.5 L 2212 396.5 L 2220.5 405 L 2222.5 406 L 2239.5 403 L 2252.5 406 L 2264 414.5 Q 2275.9 426.6 2274 452.5 L 2272 462.5 L 2268 471.5 L 2258.5 482 Q 2251.6 487.1 2241.5 489 L 2221.5 490 L 2220.5 489 L 2211.5 489 L 2194.5 486 L 2171.5 485 L 2170.5 486 L 2160.5 486 L 2143.5 489 L 2119.5 490 L 2103.5 485 L 2093 476.5 Q 2087 470.5 2084.5 461 L 2080 471.5 L 2071.5 481 Q 2063.5 487 2051.5 489 L 2025.5 489 L 2024.5 488 L 1991.5 486 L 1990.5 487 L 1976.5 487 L 1975.5 488 L 1963.5 488 L 1962.5 489 L 1951.5 489 L 1950.5 490 L 1924.5 490 Q 1909.3 487.2 1901 477.5 L 1894.5 467 Q 1873.5 484 1843.5 492 L 1815.5 497 L 1785.5 498 L 1784.5 497 L 1771.5 497 L 1770.5 496 L 1752.5 494 L 1726.5 486 Q 1695.5 473 1675 449.5 L 1672.5 446 L 1668 465.5 Q 1664.1 475.6 1656.5 482 L 1640.5 490 L 1623.5 490 L 1604.5 486 L 1571.5 486 L 1570.5 487 L 1547.5 489 L 1539.5 487 L 1531 481.5 Q 1525.6 475.9 1524.5 466 Q 1508.7 483.2 1484.5 492 L 1462.5 497 L 1439.5 498 L 1438.5 497 L 1428.5 497 L 1417.5 495 L 1399.5 489 Q 1377.4 479.1 1362 462.5 Q 1345.6 445.9 1335.5 423 L 1329 441.5 L 1313.5 461 Q 1291.2 481.2 1258.5 491 L 1227.5 497 L 1197.5 498 L 1196.5 497 L 1175.5 496 L 1159.5 493 L 1135.5 485 Q 1110.6 474.4 1093.5 456 Q 1091.3 472.3 1081.5 481 L 1066.5 489 L 1061.5 490 L 1037.5 490 L 1036.5 489 L 1027.5 489 L 1026.5 488 L 1009.5 487 L 1008.5 486 L 983.5 486 L 982.5 487 L 973.5 487 L 958.5 490 L 939.5 490 Q 927.1 486.9 920 478.5 Q 913.9 472.1 911 462.5 Q 908.7 455.8 910 445.5 Q 913 432.5 920 423.5 L 920 418.5 L 909 400.5 L 883.5 366 L 857 389.5 L 857 405.5 L 858 409 L 869.5 406 L 884.5 406 Q 896.1 408.4 902 416.5 Q 906.5 422.5 908 431.5 L 908 454.5 L 905 466.5 Q 901.8 475.3 895.5 481 L 881.5 489 L 876.5 490 L 854.5 490 L 853.5 489 L 845.5 489 L 837.5 487 L 824.5 487 L 823.5 486 L 777.5 486 L 776.5 487 L 768.5 487 L 751.5 490 L 731.5 490 Q 717.1 486.9 709 477.5 Q 699.8 468.2 697.5 452 Q 677.1 475.6 645.5 488 L 613.5 496 L 592.5 497 L 591.5 498 L 575.5 498 L 574.5 497 L 561.5 497 L 560.5 496 L 541.5 494 L 512.5 485 Q 483.3 472.2 464 449.5 Q 444.9 427.1 436 394.5 L 433 381.5 L 432 369.5 L 431 368.5 L 431 359.5 L 430 358.5 L 430 319.5 L 431 316.5 L 416.5 330 L 390.5 347 L 360.5 358 L 332.5 363 L 289.5 364 L 288.5 363 L 265.5 363 L 263 367.5 L 263 392.5 L 266.5 398 Q 270 400.5 277.5 399 L 299.5 395 L 315.5 395 Q 330.2 397.8 338 407.5 L 346 421.5 L 349 441.5 L 348 442.5 L 348 452.5 L 345 462.5 Q 339.8 474.8 329.5 482 Q 322.2 487.7 311.5 490 Q 306.8 488.8 305.5 491 L 284.5 491 L 283.5 490 L 269.5 490 L 268.5 489 L 256.5 489 L 255.5 488 L 232.5 487 L 231.5 486 L 190.5 485 L 189.5 486 L 171.5 486 L 170.5 487 L 161.5 487 L 160.5 488 L 151.5 488 L 150.5 489 L 141.5 489 L 130.5 491 L 115.5 491 Q 93.6 487.4 83 472.5 Q 72 459 74 432.5 L 78 418.5 L 87 405 L 95.5 399 L 102.5 396 Q 109.2 393.7 119.5 395 L 140.5 399 L 144 393.5 L 146 384.5 L 146 193.5 L 142.5 186 L 137.5 185 L 120.5 189 L 106.5 189 Q 93.3 186.2 86 177.5 L 76 160.5 L 74 151.5 L 74 134.5 Q 77.6 112.6 92.5 102 L 108.5 94 L 113.5 93 L 137.5 93 L 138.5 94 L 151.5 94 L 152.5 95 L 163.5 95 L 164.5 96 L 184.5 97 L 185.5 98 L 198.5 98 L 199.5 99 L 230.5 99 L 231.5 98 L 253.5 98 L 254.5 97 L 268.5 97 L 269.5 96 L 283.5 96 L 284.5 95 L 299.5 95 L 300.5 94 L 331.5 94 L 332.5 95 L 341.5 95 L 342.5 96 L 353.5 97 L 382.5 106 Q 413.1 119.4 433 143.5 Q 448.5 161.5 456 187.5 L 460 206.5 L 461.5 232 L 476.5 215 Q 499.1 194.1 533.5 185 L 554.5 181 L 562.5 181 L 563.5 180 L 599.5 180 L 600.5 181 L 609.5 181 L 610.5 182 L 621.5 183 L 633.5 186 L 657.5 195 Q 679.2 205.8 695 222.5 Q 716.5 244.5 727 277.5 L 734 312.5 L 735 345.5 L 734 346.5 L 734 360.5 L 733 361.5 L 733 369.5 L 732 370.5 L 731 381.5 L 725 404 L 736.5 403 L 749.5 407 L 752 402.5 Q 750.5 397 753 395.5 L 753 186.5 L 751 176 L 742.5 178 L 723.5 178 Q 710.5 175 704 165.5 L 698 150.5 L 697 134.5 L 701 115.5 L 710.5 102 L 722.5 95 L 735.5 92 Z M 736 110 L 725 114 Q 719 118 717 125 L 715 134 Q 714 149 720 157 L 732 161 L 741 160 L 750 157 L 759 158 L 762 160 L 767 168 L 771 188 L 771 395 L 770 396 L 769 409 L 764 420 L 757 425 L 747 425 L 737 422 Q 728 421 724 423 L 718 429 L 715 440 Q 714 456 721 464 Q 726 470 734 472 L 752 472 L 768 469 L 778 469 L 779 468 L 822 468 L 823 469 L 846 470 L 855 472 L 875 472 L 882 469 L 888 461 L 891 446 L 890 433 L 888 429 L 883 424 Q 878 425 877 423 L 861 427 Q 853 428 849 425 Q 842 421 840 412 L 839 407 L 839 382 L 868 355 Q 873 349 883 347 Q 891 346 895 351 L 925 392 Q 933 402 938 416 L 938 427 L 928 448 Q 926 460 932 465 L 942 472 L 958 472 L 974 469 L 984 469 L 985 468 L 1009 468 L 1010 469 L 1037 471 L 1038 472 L 1061 472 L 1068 469 L 1072 465 L 1076 454 Q 1078 436 1071 428 L 1065 423 L 1051 424 L 1046 426 L 1034 426 L 1025 421 Q 1012 411 1004 397 L 965 334 L 953 317 L 950 309 Q 950 298 955 294 L 967 283 L 994 263 L 1016 251 L 1031 251 L 1042 254 Q 1052 255 1057 251 L 1061 245 L 1063 234 L 1062 221 L 1059 214 L 1051 207 L 1040 205 Q 1036 208 1028 206 L 1027 207 L 1017 207 L 1016 208 L 1005 208 L 1004 209 L 990 209 L 989 210 L 962 210 L 961 209 L 929 207 L 928 206 L 914 206 L 913 205 L 902 206 L 897 208 Q 892 211 890 218 Q 889 228 893 234 L 901 240 Q 908 245 911 255 L 911 264 L 906 274 Q 874 305 839 332 L 839 118 L 837 113 L 834 110 L 823 110 L 822 111 L 806 112 L 805 113 L 796 113 L 795 114 L 779 114 L 778 113 L 754 111 L 753 110 L 736 110 Z M 1488 110 L 1475 115 L 1469 122 L 1466 133 Q 1465 146 1471 154 Q 1475 159 1483 160 L 1505 156 L 1515 156 L 1525 160 L 1531 169 L 1534 182 L 1534 245 L 1529 242 L 1507 222 L 1491 212 L 1470 204 L 1459 202 L 1432 202 L 1417 205 Q 1394 212 1379 226 Q 1350 252 1340 296 L 1341 298 L 1341 331 L 1339 341 L 1336 348 L 1338 373 L 1342 391 L 1347 406 Q 1356 428 1371 446 Q 1384 460 1402 470 L 1417 476 L 1439 480 L 1453 480 L 1476 476 Q 1493 471 1505 460 L 1519 445 L 1542 407 L 1542 465 L 1543 468 L 1549 471 L 1562 470 L 1563 469 L 1572 469 L 1573 468 L 1604 468 L 1631 473 L 1643 470 L 1650 462 L 1654 449 Q 1656 435 1651 428 L 1648 424 L 1641 422 Q 1632 422 1627 425 Q 1617 427 1613 423 L 1605 414 L 1602 401 L 1602 126 L 1599 115 L 1594 111 L 1568 111 L 1567 112 L 1553 112 L 1552 113 L 1524 112 L 1513 110 L 1488 110 Z M 116 111 L 106 115 L 100 119 L 95 127 L 92 136 Q 90 155 98 164 Q 102 169 109 171 L 120 171 L 138 167 L 148 168 L 155 172 L 161 182 L 164 194 L 164 385 L 161 400 L 155 411 Q 151 416 144 417 Q 130 417 120 413 Q 108 411 103 416 Q 95 422 92 434 L 92 449 Q 94 458 99 464 Q 105 471 117 473 L 131 473 L 132 472 L 151 471 L 152 470 L 161 470 L 162 469 L 172 469 L 173 468 L 198 468 L 199 467 L 231 468 L 232 469 L 268 471 L 269 472 L 282 472 L 283 473 L 306 473 L 320 467 L 326 460 L 330 451 Q 329 446 331 445 L 331 438 L 329 428 L 325 421 Q 321 415 314 413 L 300 413 L 277 417 L 268 417 L 256 413 L 250 408 L 246 399 Q 247 394 245 393 L 245 367 L 247 359 L 251 352 Q 256 347 264 345 L 285 345 L 286 346 L 323 346 L 324 345 L 333 345 L 355 341 Q 388 332 410 312 Q 425 298 434 278 L 440 260 L 442 242 L 443 241 L 443 216 L 439 194 Q 431 168 415 151 Q 400 134 379 124 L 360 117 L 333 112 L 299 112 L 298 113 L 253 115 L 252 116 L 226 116 L 225 117 L 186 116 L 185 115 L 165 114 L 164 113 L 154 113 L 153 112 L 141 112 L 140 111 L 116 111 Z M 564 198 L 563 199 L 556 199 L 540 202 L 527 206 Q 506 213 492 226 Q 472 242 461 267 L 452 294 L 449 310 L 449 318 L 448 319 L 448 359 L 449 360 L 449 368 L 452 385 L 459 407 Q 466 423 476 436 Q 493 456 519 468 L 544 476 L 554 478 L 561 478 L 562 479 L 573 479 L 574 480 L 606 479 L 631 474 Q 654 467 671 453 Q 692 436 704 409 L 713 380 L 715 362 L 716 361 L 716 350 L 717 349 L 716 313 L 712 291 Q 704 260 686 240 Q 668 218 640 207 L 620 201 L 602 199 L 601 198 L 564 198 Z M 1185 198 L 1159 203 L 1143 209 Q 1128 216 1116 226 Q 1093 244 1080 273 L 1071 300 L 1069 317 L 1068 318 L 1068 328 L 1067 329 L 1068 364 L 1074 392 L 1084 415 L 1100 438 Q 1117 457 1142 468 L 1162 475 L 1176 478 L 1194 479 L 1195 480 L 1228 479 L 1253 474 Q 1279 466 1298 451 Q 1312 440 1318 420 Q 1320 405 1315 398 Q 1309 388 1297 386 L 1284 386 L 1273 390 Q 1260 398 1252 409 L 1236 421 L 1220 428 L 1209 430 L 1200 430 L 1184 427 L 1167 418 Q 1156 410 1149 398 L 1144 385 L 1142 375 Q 1140 359 1145 352 Q 1149 346 1157 345 L 1310 345 L 1317 343 L 1318 342 L 1319 313 L 1322 298 L 1322 291 L 1320 281 L 1316 268 Q 1310 252 1300 240 Q 1283 218 1257 207 L 1238 201 L 1220 199 L 1219 198 L 1185 198 Z M 1774 198 L 1748 203 L 1734 208 Q 1714 216 1700 230 Q 1681 246 1670 270 L 1662 291 L 1656 324 L 1656 357 L 1657 358 L 1658 373 L 1662 390 Q 1670 416 1686 435 Q 1704 457 1733 469 L 1755 476 L 1772 479 L 1783 479 L 1784 480 L 1816 479 L 1845 473 Q 1871 465 1890 448 L 1892 445 L 1892 436 L 1895 426 Q 1899 416 1907 411 Q 1907 400 1902 396 Q 1896 389 1886 386 Q 1875 385 1869 387 Q 1858 390 1852 397 L 1845 405 L 1821 423 L 1808 428 L 1797 430 Q 1766 430 1751 414 Q 1735 401 1731 377 L 1731 358 L 1733 353 L 1739 347 L 1746 345 L 1899 345 L 1907 342 L 1909 340 L 1912 327 L 1912 302 L 1907 275 Q 1900 253 1887 238 Q 1870 217 1843 206 L 1822 200 L 1809 199 L 1808 198 L 1774 198 Z M 1939 205 Q 1937 207 1933 206 L 1927 209 Q 1917 215 1915 229 L 1915 240 L 1918 248 Q 1922 254 1931 256 L 1948 253 Q 1960 253 1967 259 L 1979 272 L 2027 335 L 2017 351 L 1976 407 L 1963 420 L 1958 423 L 1950 425 L 1931 423 L 1930 422 L 1925 423 L 1917 443 L 1910 452 Q 1910 459 1913 464 Q 1917 470 1926 472 L 1951 472 L 1952 471 L 1964 471 L 1965 470 L 1977 470 L 1978 469 L 2012 469 L 2013 470 L 2024 470 L 2025 471 L 2051 471 L 2059 468 Q 2065 464 2067 456 L 2067 444 L 2066 442 L 2054 433 Q 2048 429 2046 423 L 2046 415 L 2051 404 L 2086 356 L 2113 395 Q 2119 403 2122 415 L 2122 420 L 2118 428 L 2108 436 Q 2102 439 2100 447 Q 2100 457 2105 463 Q 2110 470 2121 472 L 2134 472 L 2135 471 L 2151 470 L 2152 469 L 2160 469 L 2161 468 L 2174 468 L 2175 467 L 2195 468 L 2196 469 L 2212 470 L 2213 471 L 2221 471 L 2222 472 L 2235 472 L 2247 468 Q 2254 463 2256 453 Q 2258 437 2252 429 Q 2248 423 2241 421 L 2236 421 L 2230 423 Q 2215 425 2209 419 L 2194 403 L 2146 333 L 2146 331 L 2193 267 Q 2199 257 2211 253 L 2225 253 L 2226 254 L 2237 254 L 2239 253 Q 2246 247 2249 238 Q 2251 222 2245 215 L 2236 207 L 2226 205 L 2224 206 L 2204 207 L 2203 208 L 2194 208 L 2193 209 L 2184 209 L 2183 210 L 2168 210 L 2167 209 L 2142 207 L 2141 206 L 2129 206 L 2128 205 L 2119 206 L 2112 209 L 2106 216 L 2104 223 L 2104 236 L 2106 240 L 2116 246 Q 2122 250 2124 258 L 2124 265 L 2120 276 L 2091 317 L 2087 319 L 2061 278 L 2054 262 L 2055 250 L 2066 238 L 2070 229 L 2069 220 L 2066 213 L 2059 207 L 2048 206 L 2047 205 L 2013 208 L 2012 209 L 2002 209 L 2001 210 L 1982 210 L 1981 209 L 1971 209 L 1954 206 Q 1944 208 1939 205 Z M 2087 237 Q 2082 249 2072 257 L 2076 268 L 2088 286 Q 2087 288 2090 287 L 2103 269 L 2106 261 L 2096 255 Q 2088 249 2087 237 Z M 1023 268 L 1007 276 L 976 299 L 968 307 L 975 316 L 1024 394 L 1038 408 L 1044 408 L 1060 405 L 1053 383 L 1051 365 L 1050 364 L 1050 352 L 1049 351 L 1049 331 L 1050 330 L 1051 310 L 1055 290 L 1062 269 L 1051 272 L 1035 271 L 1023 268 Z M 1948 271 Q 1939 275 1925 273 L 1928 286 L 1929 302 L 1930 303 L 1930 327 Q 1927 328 1929 335 L 1926 346 L 1922 353 L 1912 360 L 1898 363 L 1750 363 L 1748 365 L 1750 380 L 1758 396 L 1772 407 L 1788 412 L 1802 411 L 1816 405 L 1850 376 L 1860 371 L 1872 368 L 1892 369 L 1908 376 L 1920 390 L 1924 400 L 1924 404 L 1926 405 L 1938 405 L 1946 407 Q 1952 408 1954 404 L 1972 383 L 2005 336 L 1963 281 L 1954 272 L 1948 271 Z M 1318 361 L 1310 363 L 1160 363 L 1161 379 Q 1164 390 1171 398 L 1180 405 L 1190 410 L 1200 412 L 1209 412 L 1222 408 L 1237 398 Q 1247 384 1263 375 L 1274 370 L 1283 368 Q 1306 366 1319 376 L 1321 378 L 1320 367 L 1319 366 Q 1321 360 1318 361 Z M 2086 387 L 2064 418 L 2075 424 L 2083 435 Q 2082 438 2085 437 L 2090 428 L 2103 417 L 2101 410 L 2086 387 Z " /><path fill="rgb(255,255,255)" stroke="rgb(255,255,255)" stroke-width="1" opacity="0.9333333333333333" d="M 273.5 168 L 299.5 168 L 315.5 171 Q 331.8 175.7 342 186.5 Q 351.4 196.6 355 212.5 Q 353.8 217.2 356 218.5 L 356 243.5 L 352 258.5 Q 347.5 269.5 339.5 277 L 323.5 287 L 309.5 291 Q 304 289.5 302.5 292 L 273.5 292 L 272.5 291 L 259.5 290 L 250 284.5 L 246 275.5 Q 247.8 269.3 245 267.5 L 245 199.5 L 248 184.5 Q 251 177 257.5 173 L 263.5 170 L 273.5 168 Z M 275 186 L 268 188 L 265 191 L 263 199 L 263 268 L 264 272 L 266 273 Q 270 272 272 274 L 303 274 Q 304 272 309 273 Q 319 271 326 265 Q 332 260 335 253 L 338 243 L 338 234 L 339 233 L 337 215 L 330 201 Q 323 191 310 188 L 300 186 L 275 186 Z " /><path fill="rgb(255,255,255)" stroke="rgb(255,255,255)" stroke-width="1" opacity="0.9333333333333333" d="M 1190.5 240 L 1207.5 240 L 1219.5 243 Q 1234.7 249.3 1244 261.5 Q 1249.1 267.9 1251 277.5 L 1251 292.5 L 1244.5 301 L 1238.5 303 L 1157.5 303 Q 1150.1 301.9 1147 296.5 Q 1143.4 291.1 1145 280.5 Q 1150.4 262.4 1163.5 252 Q 1173.9 242.9 1190.5 240 Z M 1192 258 L 1178 264 L 1166 277 L 1163 285 L 1234 285 L 1232 277 L 1228 271 L 1214 260 Q 1205 256 1192 258 Z " /><path fill="rgb(255,255,255)" stroke="rgb(255,255,255)" stroke-width="1" opacity="0.9333333333333333" d="M 1779.5 240 L 1796.5 240 L 1805.5 242 Q 1821.3 247.7 1831 259.5 L 1839 274.5 L 1840 290.5 L 1834.5 300 L 1827.5 303 L 1746.5 303 Q 1739.1 301.9 1736 296.5 L 1734 292.5 L 1733 285.5 L 1735 275.5 L 1739 267.5 L 1753.5 251 L 1767.5 243 L 1779.5 240 Z M 1781 258 Q 1769 260 1763 267 L 1752 282 L 1753 285 L 1822 285 Q 1823 278 1819 274 Q 1813 264 1802 260 Q 1794 256 1781 258 Z " /><path fill="rgb(255,255,255)" stroke="rgb(255,255,255)" stroke-width="1" opacity="0.9333333333333333" d="M 573.5 249 Q 610.1 246.9 625 266.5 L 636 284.5 L 642 305.5 L 643 320.5 L 644 321.5 L 644 356.5 L 643 357.5 L 643 365.5 L 640 381.5 L 635 395.5 Q 628.5 410 616.5 419 L 599.5 427 L 581.5 429 L 580.5 428 L 571.5 428 L 558.5 424 Q 545.9 418.1 538 407.5 L 528 390.5 L 522 370.5 L 521 357.5 L 520 356.5 L 520 321.5 L 521 320.5 L 522 307.5 L 528 287.5 Q 534.3 272.3 545.5 262 L 561.5 252 L 573.5 249 Z M 575 267 Q 565 269 560 274 Q 548 283 543 299 L 539 315 L 538 337 L 537 338 L 538 341 L 538 357 L 541 373 Q 545 389 555 400 Q 561 406 570 409 L 580 411 Q 598 411 608 403 L 618 390 L 623 376 L 625 366 L 625 359 L 626 358 L 626 321 L 625 320 L 624 307 Q 621 291 613 281 Q 603 265 575 267 Z " /><path fill="rgb(255,255,255)" stroke="rgb(255,255,255)" stroke-width="1" opacity="0.9333333333333333" d="M 1465.5 254 Q 1469 256.5 1476.5 255 L 1487.5 258 Q 1503 264 1512 276.5 Q 1523.3 290.7 1528 311.5 L 1529 323.5 L 1530 324.5 L 1530 354.5 L 1529 355.5 L 1528 367.5 L 1522 386.5 Q 1514.5 404 1500.5 415 L 1480.5 425 L 1475.5 426 L 1456.5 426 Q 1434.4 421.6 1424 405.5 Q 1415.1 393.4 1411 376.5 L 1409 366.5 L 1409 358.5 L 1408 357.5 L 1408 328.5 L 1409 327.5 L 1411 309.5 L 1417 290.5 Q 1424.1 274.6 1436.5 264 L 1446.5 258 L 1455.5 255 L 1464.5 255 L 1465.5 254 Z M 1464 272 L 1450 277 Q 1438 286 1432 302 L 1428 316 L 1427 328 L 1426 329 L 1426 358 L 1427 359 L 1428 371 Q 1432 386 1440 397 Q 1447 405 1459 408 Q 1470 410 1478 407 L 1492 399 Q 1500 391 1505 381 L 1509 370 L 1512 355 L 1512 325 L 1510 314 Q 1506 297 1496 286 Q 1486 272 1464 272 Z " /></svg>